<svg id="Layer_1" data-name="Layer 1" xmlns="http://www.w3.org/2000/svg" viewBox="0 0 365.99 101.74"><defs><style>.cls-1{fill:#b6ccb3;}</style></defs><polygon points="103.36 7.37 87.77 49.27 72.17 7.37 59.77 7.37 79.92 61.65 95.59 61.65 115.75 7.37 103.36 7.37"/><polygon points="4.64 61.65 47.51 61.65 52.16 49.16 52.16 7.37 27.67 7.37 27.67 19.02 39.76 19.02 39.76 49.16 12.4 49.16 12.4 7.37 0.01 7.37 0 49.16 4.64 61.65"/><polygon points="163.13 49.16 135.75 49.16 135.75 7.37 123.36 7.37 123.36 49.16 128.01 61.65 170.87 61.65 175.52 49.16 175.52 7.37 163.13 7.37 163.13 49.16"/><rect class="cls-1" x="0.01" y="74.15" width="365.98" height="1"/><path class="cls-1" d="M8.19,88.56V99.43a2.11,2.11,0,0,1-2,2.18h-4A2.11,2.11,0,0,1,0,99.55v-11H1.37V99.2a1,1,0,0,0,.85,1.13.94.94,0,0,0,.29,0H5.68a1,1,0,0,0,1.16-.8.92.92,0,0,0,0-.33V88.56Z" transform="translate(0 0.09)"/><path class="cls-1" d="M17.71,88.56h9.14v1.27H23v11.78H21.6V89.83H17.7Z" transform="translate(0 0.09)"/><path class="cls-1" d="M44.45,101.61H43.06l-1.21-3.37H36.64l-1.14,3.37H34.15l4.5-13H40ZM37.11,97h4.37L39.3,90.29Z" transform="translate(0 0.09)"/><path class="cls-1" d="M61.54,95.49H55.66v6.12H54.29v-13h1.37v5.66h5.88V88.61h1.37v13H61.54Z" transform="translate(0 0.09)"/><path class="cls-1" d="M89.9,101.61H88.49l-4.17-13h1.39L89.2,99.76l3.46-11.15h1.4Z" transform="translate(0 0.09)"/><path class="cls-1" d="M111.51,101.61h-1.39l-1.18-3.37h-5.21l-1.13,3.37h-1.39l4.5-13H107ZM104.16,97h4.37l-2.17-6.72Z" transform="translate(0 0.09)"/><path class="cls-1" d="M121.34,88.56h1.37v11.77h5.9v1.28h-7.27Z" transform="translate(0 0.09)"/><path class="cls-1" d="M138.62,88.56H140v11.77h5.86v1.28h-7.27Z" transform="translate(0 0.09)"/><path class="cls-1" d="M155.9,88.56h7.45v1.27h-6.08v4.39h5.58v1.27h-5.53v4.84h6.11v1.28H156Z" transform="translate(0 0.09)"/><path class="cls-1" d="M177.2,95.12l3.35-6.56H182l-4.1,8.07v5h-1.39v-5l-4.09-8.07h1.43Z" transform="translate(0 0.09)"/><path class="cls-1" d="M211.24,88.56V99.43a2.11,2.11,0,0,1-2,2.18h-4a2.11,2.11,0,0,1-2.16-2.06v-11h1.38V99.2a1,1,0,0,0,.85,1.13,1.31,1.31,0,0,0,.28,0h3.18a1,1,0,0,0,1.13-.85,1.31,1.31,0,0,0,0-.28V88.56Z" transform="translate(0 0.09)"/><path class="cls-1" d="M230.72,101.61h-1.34L223.27,91v10.6h-1.33v-13h1.33l6.11,10.58V88.56h1.34Z" transform="translate(0 0.09)"/><path class="cls-1" d="M243,101.61h-1.37v-13H243Z" transform="translate(0 0.09)"/><path class="cls-1" d="M258.34,101.61h-1.41l-4.18-13h1.4l3.48,11.15,3.47-11.15h1.39Z" transform="translate(0 0.09)"/><path class="cls-1" d="M272.17,88.56h7.44v1.27h-6.07v4.39h5.52v1.27h-5.52v4.84h6.11v1.28h-7.48Z" transform="translate(0 0.09)"/><path class="cls-1" d="M290.05,88.56h6.06a2.08,2.08,0,0,1,2.15,2v3.36a2.07,2.07,0,0,1-1.82,2.15l2.69,5.53h-1.47L295,96.1h-3.54v5.51h-1.38Zm1.38,6.29h4.32a1,1,0,0,0,1.1-.88,1.13,1.13,0,0,0,0-.26V91a1,1,0,0,0-.84-1.14.76.76,0,0,0-.3,0h-4.32Z" transform="translate(0 0.09)"/><path class="cls-1" d="M308.92,93V90.73a2.1,2.1,0,0,1,2-2.17h3.77a2.09,2.09,0,0,1,2.15,2v1.55l-1.37.24V91a1,1,0,0,0-.81-1.16,1.14,1.14,0,0,0-.32,0h-2.94a1,1,0,0,0-1.14.83.91.91,0,0,0,0,.33v1.78c0,.67.45,1,1.1,1.16,1.62.45,1.94.54,3.51,1,1.13.33,2,.9,2,2.13v2.39a2.09,2.09,0,0,1-2,2.18H311a2.11,2.11,0,0,1-2.18-2V98l1.37-.23v1.43a1,1,0,0,0,.85,1.13.94.94,0,0,0,.29,0h3.05a1,1,0,0,0,1.14-.84,1.41,1.41,0,0,0,0-.29V97.27c0-.65-.33-.94-1.1-1.16l-3.48-1C309.85,94.79,308.92,94.2,308.92,93Z" transform="translate(0 0.09)"/><path class="cls-1" d="M328.85,101.61h-1.37v-13h1.37Z" transform="translate(0 0.09)"/><path class="cls-1" d="M338.52,88.56h9.15v1.27h-3.88v11.78h-1.37V89.83h-3.9Z" transform="translate(0 0.09)"/><path class="cls-1" d="M361.19,95.12l3.35-6.56H366l-4.1,8.07v5H360.5v-5l-4.09-8.07h1.44Z" transform="translate(0 0.09)"/><path class="cls-1" d="M174.16,58.42h2.31v.36h-1v2.76h-.38V58.78h-1Zm3.23.83v2.29H177V58.42h.38l.94,2,1-2h.36v3.12h-.37V59.25l-.78,1.67h-.33Z" transform="translate(0 0.09)"/><path class="cls-1" d="M210.71,1.65a21.41,21.41,0,0,0-1.07,3.29c-.13.18-.68.18-.72,0,.27-2.14-.5-3.13-2.59-3.13A7.14,7.14,0,0,0,201,4.51a10.37,10.37,0,0,0-2.38,6.39c0,3.42,1.7,4.83,4,4.83s3.51-1.27,4.85-3.18a.51.51,0,0,1,.68.12,22.57,22.57,0,0,1-1.54,3.4,13.54,13.54,0,0,0-1.77.32,13.32,13.32,0,0,1-2.27.22c-3.9,0-6.69-2-6.66-5.94A9.72,9.72,0,0,1,199.1,3.6,11.13,11.13,0,0,1,206.56.92,13.37,13.37,0,0,1,210.71,1.65Z" transform="translate(0 0.09)"/><path class="cls-1" d="M211.76,8.48A4.86,4.86,0,0,1,215.2,7c2,0,2.81,1.38,2.79,3.08A7.39,7.39,0,0,1,215.77,15a4.87,4.87,0,0,1-3.58,1.57,2.66,2.66,0,0,1-2.83-2.48,3,3,0,0,1,0-.52A7.85,7.85,0,0,1,211.76,8.48ZM214,14.37A12.61,12.61,0,0,0,215.91,9c0-.61-.09-1.22-.73-1.22-.41,0-.88.25-1.47,1a11.84,11.84,0,0,0-2.25,5.76c0,.68.3,1.18.82,1.18S213.32,15.35,214,14.37Z" transform="translate(0 0.09)"/><path class="cls-1" d="M221.55,14.35c-.2.59-.22.91.1.91.49,0,1.7-1.27,2.47-2.18.27,0,.45.14.4.41a5,5,0,0,1-4.26,3c-.9,0-1.18-.46-1.18-.82a5.11,5.11,0,0,1,.41-1.68l3.74-11c.41-1.18.32-1.4-.09-1.63l-.52-.27a.35.35,0,0,1,0-.46,20.18,20.18,0,0,1,3.62-.72c.05,0,.14.13.14.18-.32.91-.59,1.63-1.2,3.45Z" transform="translate(0 0.09)"/><path class="cls-1" d="M227.45,14.35c-.2.59-.23.91.09.91.5,0,1.7-1.27,2.47-2.18.28,0,.46.14.41.41a5,5,0,0,1-4.26,3c-.91,0-1.18-.46-1.18-.82a5.11,5.11,0,0,1,.41-1.68l3.74-11c.41-1.18.32-1.4-.09-1.63l-.52-.27a.36.36,0,0,1,0-.46,20.46,20.46,0,0,1,3.63-.72s.14.13.14.18c-.32.91-.59,1.63-1.21,3.45Z" transform="translate(0 0.09)"/><path class="cls-1" d="M230.9,14.06a8.06,8.06,0,0,1,3.22-5.88A5.24,5.24,0,0,1,237.29,7a1.73,1.73,0,0,1,1.82,1.56c0,2-3.09,3.16-5.6,3.84a4.55,4.55,0,0,0-.21,1.47c0,.84.37,1.29,1,1.29A4.23,4.23,0,0,0,237,13.74a.4.4,0,0,1,.37.41.09.09,0,0,0,0,0A5.25,5.25,0,0,1,233,16.58a2.19,2.19,0,0,1-2.15-2.22C230.88,14.26,230.89,14.16,230.9,14.06Zm4.42-5.38a7.79,7.79,0,0,0-1.63,2.9A5.83,5.83,0,0,0,236.27,10a2.76,2.76,0,0,0,.84-1.7c0-.29-.13-.56-.43-.56A2,2,0,0,0,235.32,8.68Z" transform="translate(0 0.09)"/><path class="cls-1" d="M248.45,14.06a8.09,8.09,0,0,1,3.22-5.88A5.27,5.27,0,0,1,254.85,7a1.72,1.72,0,0,1,1.81,1.56c0,2-3.08,3.16-5.6,3.84a4.88,4.88,0,0,0-.2,1.47c0,.84.36,1.29,1,1.29a4.14,4.14,0,0,0,2.68-1.43.39.39,0,0,1,.37.39s0,0,0,.07a5.23,5.23,0,0,1-4.3,2.38,2.19,2.19,0,0,1-2.17-2.2A1.67,1.67,0,0,1,248.45,14.06Zm4.43-5.38a7.82,7.82,0,0,0-1.64,2.9A6,6,0,0,0,253.85,10a2.9,2.9,0,0,0,.84-1.7c0-.29-.14-.56-.43-.56a2.18,2.18,0,0,0-1.41.93Z" transform="translate(0 0.09)"/><path class="cls-1" d="M264.94,8.48A4.92,4.92,0,0,1,268.39,7c2,0,2.81,1.38,2.79,3.08A7.45,7.45,0,0,1,269,15a4.87,4.87,0,0,1-3.58,1.57,2.66,2.66,0,0,1-2.83-2.48,3,3,0,0,1,0-.52A8,8,0,0,1,264.94,8.48Zm2.25,5.89A12.73,12.73,0,0,0,269.09,9c0-.61-.09-1.22-.72-1.22-.41,0-.89.25-1.48,1a12,12,0,0,0-2.24,5.76c0,.68.29,1.18.81,1.18S266.51,15.35,267.19,14.37Z" transform="translate(0 0.09)"/><path class="cls-1" d="M277.1,8.27c-.77,2.27-1.16,4-1.86,6.25a10.64,10.64,0,0,1-1.79,3.86,4.82,4.82,0,0,1-3.17,1.56c-1.27,0-2.09-.72-2.09-1.52a1.29,1.29,0,0,1,1.13-1.18.73.73,0,0,1,.68.46c.46.79,1,1.24,1.34,1.24s.66-.36,1.11-1.92c.77-2.72,1.25-4.75,2.38-8.75h-2a.73.73,0,0,1,.27-1h2a16.4,16.4,0,0,1,1.95-4.65A5.19,5.19,0,0,1,281.27,0a1.92,1.92,0,0,1,2.14,1.69v.05a1.4,1.4,0,0,1-1.22,1.32c-.32,0-.45-.14-.5-.45-.18-1.32-.73-1.8-1.22-1.8s-.77.3-1.36,1.48a28.5,28.5,0,0,0-1.75,5h2.7a.76.76,0,0,1-.27,1Z" transform="translate(0 0.09)"/><path class="cls-1" d="M195.11,23.79h9.39v3h-6.1v2.88H204v3H198.4v3.24h6.12v3h-9.41Z" transform="translate(0 0.09)"/><path class="cls-1" d="M220.85,38.89h-3.17l-5-8.8v8.8H209.5V23.79h3.18l5,8.84V23.79h3.17Z" transform="translate(0 0.09)"/><path class="cls-1" d="M231,30.66h5.51V36.4a2.48,2.48,0,0,1-2.47,2.49h-5.35a2.48,2.48,0,0,1-2.49-2.47V26.28a2.48,2.48,0,0,1,2.47-2.49H234a2.48,2.48,0,0,1,2.49,2.47v1.86l-3.22.54V27a.22.22,0,0,0-.21-.23h-3.35a.22.22,0,0,0-.23.21v8.68a.22.22,0,0,0,.21.23h3.38a.21.21,0,0,0,.22-.2V33.52H231Z" transform="translate(0 0.09)"/><path class="cls-1" d="M244.94,38.89h-3.29V23.79h3.29Z" transform="translate(0 0.09)"/><path class="cls-1" d="M261.76,38.89h-3.17l-5-8.8v8.8h-3.18V23.79h3.18l5,8.84V23.79h3.17Z" transform="translate(0 0.09)"/><path class="cls-1" d="M267.21,23.79h9.39v3h-6.1v2.88h5.62v3H270.5v3.24h6.12v3h-9.41Z" transform="translate(0 0.09)"/><path class="cls-1" d="M281.61,23.79H291v3h-6.1v2.88h5.62v3H284.9v3.24H291v3h-9.41Z" transform="translate(0 0.09)"/><path class="cls-1" d="M301.55,33.34H299.3v5.55H296V23.79h8.39a2.48,2.48,0,0,1,2.5,2.48h0v4.56a2.52,2.52,0,0,1-1.79,2.41l2.67,5.64h-3.6Zm-2.25-6.56v3.56h4.11a.21.21,0,0,0,.22-.2V27a.21.21,0,0,0-.19-.23H299.3Z" transform="translate(0 0.09)"/><path class="cls-1" d="M315.61,38.89h-3.29V23.79h3.29Z" transform="translate(0 0.09)"/><path class="cls-1" d="M332.44,38.89h-3.18l-5-8.8v8.8h-3.21V23.79h3.18l5,8.84V23.79h3.18Z" transform="translate(0 0.09)"/><path class="cls-1" d="M342.58,30.66h5.51V36.4a2.48,2.48,0,0,1-2.49,2.49h-5.34a2.48,2.48,0,0,1-2.49-2.47V26.28a2.48,2.48,0,0,1,2.47-2.49h5.33a2.48,2.48,0,0,1,2.49,2.47v1.86l-3.22.54V27a.21.21,0,0,0-.19-.23h-3.37a.21.21,0,0,0-.22.2v8.69a.21.21,0,0,0,.19.23h3.39a.22.22,0,0,0,.23-.21V33.52h-2.29Z" transform="translate(0 0.09)"/><path class="cls-1" d="M202.23,51.28a18.89,18.89,0,0,0,2.86-3,3.9,3.9,0,0,0,.77-1.81.81.81,0,0,0-.25-.66,1,1,0,0,1-.25-.66A1.12,1.12,0,0,1,206.42,44h.1a1.28,1.28,0,0,1,1.26,1.3.76.76,0,0,1,0,.15c0,1.23-.86,2.59-3,4.67a95.81,95.81,0,0,1-7.57,6.22,3.67,3.67,0,0,0,3.72,3.31,6.07,6.07,0,0,0,5.17-3.13,7,7,0,0,0,1.18-4A1.77,1.77,0,0,0,206,52a1.34,1.34,0,0,0-1.31,1.18,2.35,2.35,0,0,0,.27.81,1.8,1.8,0,0,1,.18.64.82.82,0,0,1-.86.78h-.07a1,1,0,0,1-1-1v-.09a3.85,3.85,0,0,1,1.59-2.63,3.91,3.91,0,0,1,2.22-1c1.27,0,2,.77,3,1.74.56.57.65.66.93.66s.41-.22.41-.59a2.73,2.73,0,0,0-.14-.63,1.79,1.79,0,0,1-.09-.46.78.78,0,0,1,.77-.68c.72,0,1.09.64,1.09,1.45a2.15,2.15,0,0,1-.52,1.25.93.93,0,0,1-.55.25,6.11,6.11,0,0,0-1.93.73.34.34,0,0,1-.47,0,.35.35,0,0,1-.05-.08A7.35,7.35,0,0,0,208,52.85v1.59a8.17,8.17,0,0,1-7.89,7.07c-3.54,0-4.9-2.27-4.9-4.53a6.94,6.94,0,0,1,2-4.83,5.4,5.4,0,0,1,3.56-1.88A1.42,1.42,0,0,1,202.23,51.28Zm-2.58.14a2.37,2.37,0,0,0-1.59,1.18,5.93,5.93,0,0,0-.9,2.77c1.18-1,2.49-2,3.13-2.59a.77.77,0,0,0,.13-.59.74.74,0,0,0-.71-.77Z" transform="translate(0 0.09)"/><path class="cls-1" d="M216.61,46.47H227.7v3h-3.85V61.58h-3.29V49.46h-3.9Z" transform="translate(0 0.09)"/><path class="cls-1" d="M232.12,46.47h9.39v3h-6.1v2.88H241v3h-5.62v3.24h6.12v3h-9.41Z" transform="translate(0 0.09)"/><path class="cls-1" d="M256.59,56.47v2.61a2.48,2.48,0,0,1-2.47,2.49h-5.21a2.48,2.48,0,0,1-2.5-2.48h0V49a2.48,2.48,0,0,1,2.49-2.49h5.2A2.48,2.48,0,0,1,256.59,49v2.29l-3.22.55V49.74a.21.21,0,0,0-.19-.23h-3.25a.22.22,0,0,0-.23.21V58.4a.22.22,0,0,0,.21.23h3.24a.21.21,0,0,0,.22-.2V56Z" transform="translate(0 0.09)"/><path class="cls-1" d="M269.34,55.4H265v6.17H261.7V46.47H265v5.94h4.35V46.47h3.29v15.1h-3.29Z" transform="translate(0 0.09)"/><path class="cls-1" d="M289.46,61.57h-3.18l-5-8.8v8.8H278.1V46.47h3.18l5,8.84V46.47h3.18Z" transform="translate(0 0.09)"/><path class="cls-1" d="M302.85,61.57h-5.58a2.48,2.48,0,0,1-2.49-2.47V49a2.48,2.48,0,0,1,2.47-2.49h5.6a2.48,2.48,0,0,1,2.5,2.48h0V59.13A2.49,2.49,0,0,1,302.85,61.57Zm-1-12.11h-3.54a.21.21,0,0,0-.22.2v8.69a.21.21,0,0,0,.19.23h3.57a.22.22,0,0,0,.23-.21V49.69a.22.22,0,0,0-.21-.23Z" transform="translate(0 0.09)"/><path class="cls-1" d="M310.69,46.47H314V58.58h6v3h-9.3Z" transform="translate(0 0.09)"/><path class="cls-1" d="M332.48,61.57H326.9a2.48,2.48,0,0,1-2.49-2.47V49a2.48,2.48,0,0,1,2.47-2.49h5.6A2.48,2.48,0,0,1,335,49h0V59.13A2.49,2.49,0,0,1,332.48,61.57Zm-1-12.11h-3.54a.21.21,0,0,0-.22.2v8.69a.21.21,0,0,0,.19.23h3.57a.22.22,0,0,0,.23-.21V49.69a.22.22,0,0,0-.21-.23h0Z" transform="translate(0 0.09)"/><path class="cls-1" d="M345,53.34h5.51v5.74A2.48,2.48,0,0,1,348,61.57h-5.35a2.48,2.48,0,0,1-2.49-2.47V49a2.48,2.48,0,0,1,2.47-2.49H348A2.48,2.48,0,0,1,350.49,49v1.86l-3.22.55V49.74a.22.22,0,0,0-.21-.23h-3.35a.22.22,0,0,0-.23.21V58.4a.22.22,0,0,0,.21.23h3.38a.21.21,0,0,0,.22-.2V56.25H345Z" transform="translate(0 0.09)"/><path class="cls-1" d="M359.7,52.8l2.54-6.33h3.47l-4.36,10v5.08H358V56.47l-4.35-10h3.47Z" transform="translate(0 0.09)"/><path class="cls-1" d="M237.24,18.87c0-1.74,2.54-2.7,3.8-3.06.32.19-.36,0-.35-.52a1.13,1.13,0,0,1,.73-1.08,2.3,2.3,0,0,1-1.85-2.35,5.25,5.25,0,0,1,1.89-3.68A5.08,5.08,0,0,1,244.85,7a2.48,2.48,0,0,1,1,.2,2.56,2.56,0,0,0,.75.3,4.82,4.82,0,0,0,1-.14,6.14,6.14,0,0,1,1.05-.23c.37,0,.64.23.64.78a.75.75,0,0,1-.64.8,2.26,2.26,0,0,1-.68-.12,3.7,3.7,0,0,0-.74-.13.18.18,0,0,0-.18.16,3.82,3.82,0,0,1,.14.75,5.18,5.18,0,0,1-3.15,4.5,6,6,0,0,1-1.67.43c-.18.14-.34.51-.14.7a8.09,8.09,0,0,0,1.37.86c.59.32.85.42,1.6.85a2,2,0,0,1,1.14,2c-.28,1.78-2.27,2.41-5.06,2.41C239.57,21.06,237.24,20.51,237.24,18.87Zm7.08-.22c-.08-.5-.17-.66-.93-1.22a4.8,4.8,0,0,0-1.79-1,2.27,2.27,0,0,0-1.16.52,2,2,0,0,0-1,1.49c0,1.07,1.4,1.59,2.9,1.49C243.58,19.86,244.41,19.2,244.32,18.65Zm.34-10.88c-.37,0-.82.27-1.42,1a8.17,8.17,0,0,0-1.73,3.93.7.7,0,0,0,.63.75h.05c.41,0,1-.46,1.58-1.3a8.64,8.64,0,0,0,1.53-3.56.73.73,0,0,0-.63-.82Z" transform="translate(0 0.09)"/></svg>